<svg xmlns="http://www.w3.org/2000/svg" viewBox="0 0 148.09 148.33"><defs><style>.cls-1{fill:#c31f33;}.cls-1,.cls-3{fill-rule:evenodd;}.cls-2,.cls-3{fill:#fff;}</style></defs><g id="Layer_2" data-name="Layer 2"><g id="svg2"><path id="rect8528-63" class="cls-1" d="M.83,0H147.27a.83.83,0,0,1,.82.83V147.51a.82.82,0,0,1-.82.82H.83a.82.82,0,0,1-.83-.82V.83A.83.83,0,0,1,.83,0Z"/><g id="text6065-3-2-9"><path id="path1969" class="cls-2" d="M44.16,24.78a2.53,2.53,0,0,1-.58-1,5.52,5.52,0,0,1-.13-1.23V16.34a3.21,3.21,0,0,1,.86-2.27,2.88,2.88,0,0,1,2.2-.94,3,3,0,0,1,2.11.88,2.82,2.82,0,0,1,.9,2.09v6.46a3.86,3.86,0,0,1-.06.8,1.76,1.76,0,0,1-.15.53l1.18,1-1,1.2-1.12-.9a3,3,0,0,1-2,.68,2.78,2.78,0,0,1-1.23-.3,3.38,3.38,0,0,1-1-.77Zm3-2.69.6.47V16.34a1.5,1.5,0,0,0-.34-1,1.1,1.1,0,0,0-.93-.43,1.15,1.15,0,0,0-.65.18,1.27,1.27,0,0,0-.42.45,2.56,2.56,0,0,0-.13.41c0,.09,0,.22,0,.39v6.35a1.71,1.71,0,0,0,.29,1,1.19,1.19,0,0,0,1,.43A1.22,1.22,0,0,0,47,24l-.82-.69Z"/><path id="path1971" class="cls-2" d="M56.65,24.45a3.14,3.14,0,0,1-1.06,1,2.66,2.66,0,0,1-1.42.39,2.63,2.63,0,0,1-.78-.11,4,4,0,0,1-.71-.28,3,3,0,0,1-.6-.41,1.94,1.94,0,0,1-.39-.5,3.75,3.75,0,0,1-.37-.92,4.44,4.44,0,0,1-.08-.84V13.25H53v9.8l0,.18a1.48,1.48,0,0,0,.28.52,1,1,0,0,0,.84.34.89.89,0,0,0,.8-.39,1.55,1.55,0,0,0,.28-.9V13.25h1.79V22.8a4,4,0,0,1-.09.86,2.58,2.58,0,0,1-.32.79Z"/><path id="path1973" class="cls-2" d="M58,25.75l2.8-12.5h1.55l2.8,12.5H63.24l-.5-2.69H60.43l-.53,2.69Zm2.72-4.35h1.68l-.84-4.55Z"/><path id="path1975" class="cls-2" d="M71.44,25.75H66.1V13.25h1.79V24h3.55Z"/><path id="path1977" class="cls-2" d="M71.94,25.75V13.25h1.77v12.5Z"/><path id="path1979" class="cls-2" d="M76.81,25.75V14.91H74.7V13.25h6v1.66H78.59V25.75Z"/><path id="path1981" class="cls-2" d="M83.36,25.75V20.38l-2.43-7.13H82.8l1.45,4.89,1.48-4.89h1.88l-2.48,7.13v5.37Z"/><path id="path1983" class="cls-2" d="M48.94,41.21V43H43.58V30.49h5.36v1.64H45.36v3.7h3.13v1.7H45.36v3.68Z"/><path id="path1985" class="cls-2" d="M53.14,30.49a2.82,2.82,0,0,1,2.07.86,2.72,2.72,0,0,1,.88,2v6.5a3.06,3.06,0,0,1-.84,2.24,2.91,2.91,0,0,1-2.17.86H50.3V30.49Zm1.17,9.41V33.4a1.13,1.13,0,0,0-.39-.87,1.26,1.26,0,0,0-.91-.36h-.94v9.17H53c.91,0,1.36-.48,1.36-1.44Z"/><path id="path1987" class="cls-2" d="M63,41.69a3.19,3.19,0,0,1-1.07,1,2.63,2.63,0,0,1-1.42.39,3,3,0,0,1-.78-.11,5,5,0,0,1-.71-.28,4.51,4.51,0,0,1-.6-.41,1.83,1.83,0,0,1-.39-.51,3.55,3.55,0,0,1-.37-.91,4.44,4.44,0,0,1-.08-.84V30.49h1.79v9.8l0,.19a1.57,1.57,0,0,0,.28.52,1,1,0,0,0,.84.34.89.89,0,0,0,.8-.39,1.57,1.57,0,0,0,.28-.9V30.49h1.8v9.56a3.49,3.49,0,0,1-.1.86,2.89,2.89,0,0,1-.31.78Z"/><path id="path1989" class="cls-2" d="M70.72,39.84a6.17,6.17,0,0,1-.07,1,2.35,2.35,0,0,1-.37.93,2.91,2.91,0,0,1-.43.51,4,4,0,0,1-.56.41,4,4,0,0,1-.66.28,2.37,2.37,0,0,1-.69.11,3.38,3.38,0,0,1-1.53-.35,2.42,2.42,0,0,1-1-.9,3.3,3.3,0,0,1-.41-1,6.32,6.32,0,0,1-.07-1V33.4a4.38,4.38,0,0,1,.09-.93,2.65,2.65,0,0,1,.45-.91,2.57,2.57,0,0,1,1-.82,2.52,2.52,0,0,1,1.29-.36,2.9,2.9,0,0,1,2.14.86,2.86,2.86,0,0,1,.86,2.16v.68H69V33.4a1.3,1.3,0,0,0-.3-.87,1.14,1.14,0,0,0-1.66,0,1.34,1.34,0,0,0-.28.87v6.93A1.48,1.48,0,0,0,67,41a1,1,0,0,0,.86.38.9.9,0,0,0,.84-.34,1.71,1.71,0,0,0,.24-.48,1.87,1.87,0,0,0,0-.45v-.64h1.77Z"/><path id="path1991" class="cls-2" d="M71.32,43l2.8-12.51h1.54L78.46,43H76.54L76,40.31H73.72L73.2,43ZM74,38.65h1.68l-.84-4.56Z"/><path id="path1993" class="cls-2" d="M80,43V32.15H77.86V30.49h6v1.66H81.74V43Z"/><path id="path1995" class="cls-2" d="M84.84,43V30.49h1.78V43Z"/><path id="path1997" class="cls-2" d="M88.77,31.67a3,3,0,0,1,1.09-.93,2.9,2.9,0,0,1,1.38-.36,3,3,0,0,1,1.29.28,2.81,2.81,0,0,1,1,.77,2.65,2.65,0,0,1,.56,1,3.9,3.9,0,0,1,.15,1.1V39.9a3.75,3.75,0,0,1-.11,1,2.69,2.69,0,0,1-.45,1,2.93,2.93,0,0,1-2.41,1.27,3.41,3.41,0,0,1-.85-.11,3.83,3.83,0,0,1-.77-.34A3,3,0,0,1,89,42.2a2,2,0,0,1-.41-.55,3.47,3.47,0,0,1-.34-.93,4.91,4.91,0,0,1-.06-.82V33.53a3.6,3.6,0,0,1,.12-1,3,3,0,0,1,.42-.88Zm3.48,1a1.12,1.12,0,0,0-1-.53,1.28,1.28,0,0,0-.64.19,1.1,1.1,0,0,0-.43.39,2,2,0,0,0-.15.45,3,3,0,0,0,0,.37v6.58a1.41,1.41,0,0,0,0,.2,2,2,0,0,0,.3.62,1.08,1.08,0,0,0,.94.39,1.15,1.15,0,0,0,.59-.15,1.11,1.11,0,0,0,.4-.37,1.43,1.43,0,0,0,.16-.41,2.25,2.25,0,0,0,0-.49V33.53a2.15,2.15,0,0,0,0-.52.69.69,0,0,0-.18-.35Z"/><path id="path1999" class="cls-2" d="M100.15,43l-2.78-7.6V43h-1.8V30.49h1.7L100,38.07V30.49h1.79V43Z"/></g><g id="text6075-0-6-9"><path id="path2002" class="cls-2" d="M23.92,42.43V37.87H15.39v-4L21.6,12.5h4.51L19.72,33.85h4.2V25.32h4.29v8.53h2.1v4h-2.1v4.56Z"/></g><path id="path7004" class="cls-3" d="M113,59.9c-1.52,0-3,.84-3,2.47v4.46H116V62.37C116,60.71,114.48,59.89,113,59.9Zm-3,8.85V113.3l3,10,3-10V68.75ZM39.34,64.44V113.7l26.1,8V79.62Zm25.88,62.94-31.59-8.94V66.5l2.75-2.1v52L65.86,125h2.4l29.48-8.6v-52l2.75,2.1v51.94l-31.6,8.94ZM94.78,64.44V113.7l-26.11,8V79.62Z"/></g></g></svg>