<svg xmlns="http://www.w3.org/2000/svg" viewBox="0 0 148.09 148.33"><defs><style>.cls-1{fill:#eb1c2d;}.cls-1,.cls-3{fill-rule:evenodd;}.cls-2,.cls-3{fill:#fff;}</style></defs><g id="Layer_2" data-name="Layer 2"><g id="svg2"><path id="rect8528-7" class="cls-1" d="M.83,0H147.27a.83.83,0,0,1,.82.83V147.51a.82.82,0,0,1-.82.82H.83a.82.82,0,0,1-.83-.82V.83A.83.83,0,0,1,.83,0Z"/><g id="text6065"><path id="path1875" class="cls-2" d="M46.85,25.75l-2.78-7.6v7.6H42.28V13.25H44l2.76,7.57V13.25h1.79v12.5Z"/><path id="path1877" class="cls-2" d="M50.46,14.42a3,3,0,0,1,1.08-.93,2.9,2.9,0,0,1,1.38-.36,3.11,3.11,0,0,1,1.29.28,3,3,0,0,1,1,.77,2.75,2.75,0,0,1,.56,1,3.8,3.8,0,0,1,.15,1.1v6.36a4.1,4.1,0,0,1-.11,1,3,3,0,0,1-.45.95,2.89,2.89,0,0,1-1,.9,2.74,2.74,0,0,1-1.42.37,3.07,3.07,0,0,1-.86-.11,4.36,4.36,0,0,1-.76-.33,3.92,3.92,0,0,1-.64-.47,2.49,2.49,0,0,1-.41-.54,3.64,3.64,0,0,1-.34-.94,6.44,6.44,0,0,1,0-.82V16.29a4.1,4.1,0,0,1,.11-1A3.11,3.11,0,0,1,50.46,14.42Zm3.47,1a1.1,1.1,0,0,0-1-.52,1.26,1.26,0,0,0-.63.18,1.12,1.12,0,0,0-.43.4,1.35,1.35,0,0,0-.15.44,2,2,0,0,0,0,.38v6.57a1.5,1.5,0,0,0,0,.2,1.63,1.63,0,0,0,.3.62,1.06,1.06,0,0,0,.93.39,1.19,1.19,0,0,0,.6-.15.94.94,0,0,0,.39-.37,1.49,1.49,0,0,0,.17-.41,3.11,3.11,0,0,0,0-.49V16.29a2.68,2.68,0,0,0,0-.52A.79.79,0,0,0,53.93,15.41Z"/><path id="path1879" class="cls-2" d="M42.28,43V30.49h3a2.46,2.46,0,0,1,1.07.24,3.17,3.17,0,0,1,.89.6,2.74,2.74,0,0,1,.62.86,2.27,2.27,0,0,1,.26,1v2a2.83,2.83,0,0,1-.24,1.16,3,3,0,0,1-.62.91,2.86,2.86,0,0,1-.93.62,2.8,2.8,0,0,1-1.12.22h-1.1V43Zm3.79-7a.65.65,0,0,0,.2-.36,1.51,1.51,0,0,0,.06-.46V33.35a1.2,1.2,0,0,0-.32-.86,1.09,1.09,0,0,0-.86-.36H44.07v4.24H45a3.12,3.12,0,0,0,.6,0A1.17,1.17,0,0,0,46.07,36Z"/><path id="path1881" class="cls-2" d="M50.18,31.67a3,3,0,0,1,1.09-.93,2.87,2.87,0,0,1,1.38-.36,3,3,0,0,1,1.29.28,2.81,2.81,0,0,1,1,.77,2.65,2.65,0,0,1,.56,1,3.9,3.9,0,0,1,.15,1.1V39.9a4.22,4.22,0,0,1-.11,1,2.69,2.69,0,0,1-.45,1,2.93,2.93,0,0,1-2.41,1.27,3.41,3.41,0,0,1-.85-.11,3.83,3.83,0,0,1-.77-.34,3,3,0,0,1-.63-.46,2.3,2.3,0,0,1-.42-.55,3.76,3.76,0,0,1-.33-.93,4.91,4.91,0,0,1-.06-.82V33.53a4.07,4.07,0,0,1,.11-1A3,3,0,0,1,50.18,31.67Zm3.48,1a1.12,1.12,0,0,0-1-.53,1.28,1.28,0,0,0-.64.19,1.1,1.1,0,0,0-.43.39,2,2,0,0,0-.15.45,3.39,3.39,0,0,0,0,.37v6.58a1.5,1.5,0,0,0,0,.2,2,2,0,0,0,.3.62,1.08,1.08,0,0,0,.94.39,1.15,1.15,0,0,0,.59-.15,1,1,0,0,0,.39-.37,1.23,1.23,0,0,0,.17-.41,2.25,2.25,0,0,0,0-.49V33.53a2.15,2.15,0,0,0,0-.52.69.69,0,0,0-.18-.35Z"/><path id="path1883" class="cls-2" d="M59.16,43,56.61,30.49h1.86l1.46,8.68,1.47-8.68h1.91L60.7,43Z"/><path id="path1885" class="cls-2" d="M69.75,41.21V43H64.39V30.49h5.36v1.64H66.17v3.7H69.3v1.7H66.17v3.68Z"/><path id="path1887" class="cls-2" d="M70.6,43V30.49h3.13a2.81,2.81,0,0,1,2.08.86,2.87,2.87,0,0,1,.85,2.11v1.16a2.93,2.93,0,0,1-1.47,2.65L77.09,43h-1.9l-1.68-5.36H72.39V43Zm4-7.34a1,1,0,0,0,.23-.46,2.15,2.15,0,0,0,.07-.58V33.46a1.28,1.28,0,0,0-.32-.93,1.11,1.11,0,0,0-.89-.38H72.39v3.9h1.25a1.24,1.24,0,0,0,.93-.39Z"/><path id="path1889" class="cls-2" d="M79.22,43V32.15H77.11V30.49h6v1.66H81V43Z"/><path id="path1891" class="cls-2" d="M85.76,43V37.62l-2.43-7.13H85.2l1.46,4.89,1.47-4.89H90l-2.49,7.13V43Z"/></g><g id="text6075"><path id="path1894" class="cls-2" d="M21.23,42.43V17l-4.29,3.22V15.63l4.29-3.13h4.24V42.43Z"/></g><path id="path6660" class="cls-3" d="M32,70.9A4.11,4.11,0,0,1,27.86,75h0a4.11,4.11,0,0,1-4.11-4.12h0a4.12,4.12,0,0,1,4.11-4.12h0A4.12,4.12,0,0,1,32,70.9Z"/><path id="path6660-6" class="cls-3" d="M66.86,73.18a4.12,4.12,0,0,1-4.12,4.12h0a4.12,4.12,0,1,1,4.12-4.12Z"/><path id="path6660-1" class="cls-3" d="M90,73.18a4.11,4.11,0,0,1-4.11,4.12h0A4.12,4.12,0,1,1,90,73.18Z"/><path id="path6660-7" class="cls-3" d="M122.3,71a4.12,4.12,0,1,1-8.23,0h0a4.11,4.11,0,0,1,4.11-4.12h0A4.11,4.11,0,0,1,122.3,71Z"/><path id="path6660-2" class="cls-3" d="M47.7,91.62a3.3,3.3,0,1,1-3.3-3.29h0a3.29,3.29,0,0,1,3.3,3.29Z"/><path id="path6660-2-9" class="cls-3" d="M106,91.62a3.3,3.3,0,1,1-3.3-3.29h0a3.29,3.29,0,0,1,3.3,3.29Z"/><path id="path6858" class="cls-3" d="M117.36,96.15V113a2.13,2.13,0,1,1-4.25,0V83.48a.73.73,0,1,0-1.45,0v10a1.57,1.57,0,1,1-3.11,0V81.33a4.56,4.56,0,0,1,4.63-4.63h10a4.55,4.55,0,0,1,4.62,4.63v12.1a1.57,1.57,0,1,1-3.1,0v-10a.74.74,0,1,0-1.46,0V113a2.12,2.12,0,1,1-4.24,0V96.15C119,95.22,117.36,95.19,117.36,96.15Z"/><path id="path6853" class="cls-3" d="M22.72,76.7a4.55,4.55,0,0,0-4.62,4.63v12.1a1.72,1.72,0,0,0,.83,1.62l-3.75,18.71a.74.74,0,1,0,1.45.28l3.44-18.88a1.69,1.69,0,0,0,1.13-1.73v-10a.74.74,0,1,1,1.46,0V113a2.12,2.12,0,1,0,4.24,0V96.15c0-1,1.65-.93,1.65,0V113a2.13,2.13,0,1,0,4.25,0V83.48a.73.73,0,1,1,1.45,0v10a1.57,1.57,0,1,0,3.11,0V81.33a4.56,4.56,0,0,0-4.63-4.63Z"/><path id="path6660-7-6-5-9-4" class="cls-3" d="M62,101.19v11.93a2.06,2.06,0,1,1-4.12,0V101.19h-4l4.47-15.9A.65.65,0,0,0,57.14,85l-2.72,8.7c-.65,2-3.41,1.33-2.68-1.06l3.42-11.24a3.36,3.36,0,0,1,3.12-2.28H67a3.34,3.34,0,0,1,3.12,2.28l3.43,11.24c.72,2.39-2,3.11-2.68,1.06L68.17,85a.66.66,0,0,0-1.28.31l4.48,15.9h-4v11.93a2.06,2.06,0,1,1-4.12,0V101.19Z"/><path id="path6813" class="cls-3" d="M85.24,101.19v11.93a2.07,2.07,0,1,1-4.13,0V101.19h-4l4.48-15.9A.65.65,0,0,0,80.37,85l-2.73,8.7c-.64,2-3.4,1.33-2.67-1.06l3.42-11.24a3.34,3.34,0,0,1,3.12-2.28h8.74a3.34,3.34,0,0,1,3.12,2.28l3.42,11.24c.73,2.39-2,3.11-2.68,1.06L91.39,85a.65.65,0,0,0-1.27.31l4.48,15.9h-4v11.93a2.06,2.06,0,1,1-4.12,0V101.19Z"/><path id="path6833" class="cls-3" d="M103.53,108.43v5c0,2.11,2.89,2.38,2.89,0V101.56c0-.63.68-.65.9,0l1.52,4c.52,1.37,2.11.79,1.54-.61l-3-7.39a1.87,1.87,0,0,0-1.76-1.16H100a1.87,1.87,0,0,0-1.76,1.16l-3,7.39c-.57,1.4,1,2,1.54.61l1.51-4c.23-.61.9-.59.9,0v11.83c0,2.38,2.9,2.11,2.9,0v-5c0-.88,1.47-.94,1.47,0Z"/><path id="path6660-7-6-5-9-4-3-7-8" class="cls-3" d="M43.8,108.73v5.07a1.33,1.33,0,1,1-2.65,0v-5.57H39.32l1.6-5.81a3.84,3.84,0,0,0-.43-2.89l-2.77-4.87a1.11,1.11,0,0,1,1.83-1.25l2,3.24c.3.48.67.43,1.13.43h3.78c.46,0,.83,0,1.13-.43l2-3.24a1.11,1.11,0,0,1,1.83,1.25l-2.76,4.87a3.75,3.75,0,0,0-.43,2.89l1.6,5.81H48.05v5.57a1.33,1.33,0,1,1-2.65,0v-5.07A.8.8,0,1,0,43.8,108.73Z"/></g></g></svg>