<svg xmlns="http://www.w3.org/2000/svg" viewBox="0 0 148.09 148.33"><defs><style>.cls-1{fill:#e11484;}.cls-1,.cls-3{fill-rule:evenodd;}.cls-2,.cls-3{fill:#fff;}</style></defs><g id="Layer_2" data-name="Layer 2"><g id="svg2"><path id="rect8528-63-2-4-3-6-0" class="cls-1" d="M.83,0H147.27a.83.83,0,0,1,.82.83V147.51a.82.82,0,0,1-.82.82H.83a.82.82,0,0,1-.83-.82V.83A.83.83,0,0,1,.83,0Z"/><g id="text6065-3-2-9-6-6-5-0-0-8"><path id="path2273" class="cls-2" d="M47.81,25.23V12.73h3.13a2.76,2.76,0,0,1,2.07.86,2.83,2.83,0,0,1,.86,2.11v1.15A2.93,2.93,0,0,1,52.4,19.5l1.9,5.73H52.4l-1.68-5.35H49.6v5.35Zm4-7.33a1.15,1.15,0,0,0,.23-.47,2.1,2.1,0,0,0,.07-.58V15.7a1.33,1.33,0,0,0-.32-.94,1.1,1.1,0,0,0-.89-.37H49.6v3.9h1.25a1.24,1.24,0,0,0,.93-.39Z"/><path id="path2275" class="cls-2" d="M60.43,23.44v1.79H55.07V12.73h5.36v1.64H56.84v3.7H60v1.69H56.84v3.68Z"/><path id="path2277" class="cls-2" d="M64.12,12.73a2.79,2.79,0,0,1,2.07.86,2.71,2.71,0,0,1,.88,2.05v6.5a3.08,3.08,0,0,1-.84,2.24,2.89,2.89,0,0,1-2.16.85H61.29V12.73Zm1.18,9.41v-6.5a1.15,1.15,0,0,0-.39-.88,1.32,1.32,0,0,0-.92-.35h-.93v9.16h.88c.9,0,1.36-.48,1.36-1.43Z"/><path id="path2279" class="cls-2" d="M74.28,23.93a3.23,3.23,0,0,1-1.06,1,2.58,2.58,0,0,1-1.42.4,2.64,2.64,0,0,1-.78-.12,3.39,3.39,0,0,1-.71-.28,3,3,0,0,1-.6-.41,1.59,1.59,0,0,1-.39-.5,4.09,4.09,0,0,1-.38-.92,4.46,4.46,0,0,1-.07-.84V12.73h1.79v9.8l0,.18a1.4,1.4,0,0,0,.28.53,1,1,0,0,0,.84.33.89.89,0,0,0,.8-.39,1.52,1.52,0,0,0,.28-.9V12.73h1.79v9.55a4,4,0,0,1-.09.86,2.58,2.58,0,0,1-.32.79Z"/><path id="path2281" class="cls-2" d="M81.91,22.08a6.17,6.17,0,0,1-.07,1,2.5,2.5,0,0,1-.38.93,2.44,2.44,0,0,1-.43.5,3,3,0,0,1-.56.41,2.71,2.71,0,0,1-.65.28,2.18,2.18,0,0,1-.69.12A3.26,3.26,0,0,1,77.6,25a2.34,2.34,0,0,1-1-.89,3.4,3.4,0,0,1-.41-1,6.36,6.36,0,0,1-.08-1V15.64a3.73,3.73,0,0,1,.1-.93,2.94,2.94,0,0,1,.44-.92,2.79,2.79,0,0,1,1-.82,2.5,2.5,0,0,1,1.28-.35,2.92,2.92,0,0,1,3,3v.67H80.14v-.67a1.32,1.32,0,0,0-.3-.88,1.16,1.16,0,0,0-1.66,0,1.36,1.36,0,0,0-.28.88v6.92a1.57,1.57,0,0,0,.26.64,1,1,0,0,0,.86.37.92.92,0,0,0,.84-.33,2.9,2.9,0,0,0,.24-.49,2.48,2.48,0,0,0,0-.45v-.63h1.77Z"/><path id="path2283" class="cls-2" d="M88.63,23.44v1.79H83.27V12.73h5.36v1.64H85.05v3.7h3.13v1.69H85.05v3.68Z"/><path id="path2285" class="cls-2" d="M92.32,12.73a2.82,2.82,0,0,1,2.08.86,2.74,2.74,0,0,1,.87,2.05v6.5a3.08,3.08,0,0,1-.84,2.24,2.89,2.89,0,0,1-2.16.85H89.49V12.73Zm1.18,9.41v-6.5a1.15,1.15,0,0,0-.39-.88,1.32,1.32,0,0,0-.92-.35h-.93v9.16h.88c.91,0,1.36-.48,1.36-1.43Z"/><path id="path2287" class="cls-2" d="M48.07,42.48V30h1.77V42.48Z"/><path id="path2289" class="cls-2" d="M55.88,42.48l-2.79-7.6v7.6H51.3V30H53l2.76,7.58V30h1.8V42.48Z"/><path id="path2291" class="cls-2" d="M64,40.69v1.79H58.66V30H64v1.65H60.43v3.69h3.14V37H60.43v3.68Z"/><path id="path2293" class="cls-2" d="M65.33,41.51a2.53,2.53,0,0,1-.58-1,5.52,5.52,0,0,1-.13-1.23V33.07a3.19,3.19,0,0,1,.86-2.27,2.88,2.88,0,0,1,2.2-.94,2.94,2.94,0,0,1,2.11.88,2.81,2.81,0,0,1,.9,2.09v6.46a3.86,3.86,0,0,1-.06.8,1.63,1.63,0,0,1-.15.52l1.18,1-1,1.2-1.12-.9a3,3,0,0,1-2,.67,2.91,2.91,0,0,1-1.23-.29,3.38,3.38,0,0,1-1-.77Zm3-2.69.6.47V33.07a1.48,1.48,0,0,0-.34-1,1.1,1.1,0,0,0-.93-.43,1.21,1.21,0,0,0-.66.18,1.34,1.34,0,0,0-.41.45,2.28,2.28,0,0,0-.13.41,3.53,3.53,0,0,0,0,.39v6.35a1.66,1.66,0,0,0,.3,1,1.2,1.2,0,0,0,1,.43,1.22,1.22,0,0,0,.45-.11L67.31,40Z"/><path id="path2295" class="cls-2" d="M77.52,41.17a3.16,3.16,0,0,1-1.06,1,2.68,2.68,0,0,1-1.42.39,2.74,2.74,0,0,1-.79-.11,4.76,4.76,0,0,1-.71-.28,3.24,3.24,0,0,1-.59-.41,1.59,1.59,0,0,1-.39-.5,3.83,3.83,0,0,1-.38-.92,4.46,4.46,0,0,1-.07-.84V30H73.9v9.8l0,.19a1.39,1.39,0,0,0,.28.52,1,1,0,0,0,.84.34.9.9,0,0,0,.8-.39,1.55,1.55,0,0,0,.28-.9V30h1.79v9.56a4,4,0,0,1-.09.86,2.52,2.52,0,0,1-.32.78Z"/><path id="path2297" class="cls-2" d="M78.64,42.48,81.44,30H83l2.8,12.51H83.87l-.5-2.69H81.05l-.52,2.69Zm2.73-4.35h1.68l-.84-4.55Z"/><path id="path2299" class="cls-2" d="M92.06,42.48H86.72V30h1.79V40.69h3.55Z"/><path id="path2301" class="cls-2" d="M92.45,42.48V30h1.77V42.48Z"/><path id="path2303" class="cls-2" d="M97.48,42.48V31.64H95.37V30h6v1.67H99.25V42.48Z"/><path id="path2305" class="cls-2" d="M102,42.48V30h1.77V42.48Z"/><path id="path2307" class="cls-2" d="M110.63,40.69v1.79h-5.36V30h5.36v1.65h-3.58v3.69h3.13V37h-3.13v3.68Z"/><path id="path2309" class="cls-2" d="M112.87,39.36v.32a1.52,1.52,0,0,0,0,.23,2,2,0,0,0,.28.54,1.08,1.08,0,0,0,.94.37,1.65,1.65,0,0,0,.69-.15,1.07,1.07,0,0,0,.46-.43.94.94,0,0,0,.13-.39,1.48,1.48,0,0,0,0-.34V38.3a1.11,1.11,0,0,0-.15-.63,1.81,1.81,0,0,0-.67-.55c-.24-.12-.66-.29-1.27-.52a3.59,3.59,0,0,1-1.53-1.06,3,3,0,0,1-.62-2V33a3.11,3.11,0,0,1,.86-2.2,2.81,2.81,0,0,1,2.13-.94,2.87,2.87,0,0,1,2.17.92,3.1,3.1,0,0,1,.87,2.22v.56h-1.79V33a1.66,1.66,0,0,0,0-.24.68.68,0,0,0,0-.21.64.64,0,0,0-.09-.22,2.85,2.85,0,0,0-.21-.32,1,1,0,0,0-.87-.37,1.17,1.17,0,0,0-.9.39,1.44,1.44,0,0,0-.33,1v.73a1.24,1.24,0,0,0,.11.59,1.52,1.52,0,0,0,.6.47l.44.21c.21.07.47.16.77.28a3.69,3.69,0,0,1,1.6,1.06,2.82,2.82,0,0,1,.71,2v1a3.93,3.93,0,0,1-.13,1.11,4.3,4.3,0,0,1-.76,1.3,2.64,2.64,0,0,1-2.19.82,2.68,2.68,0,0,1-2.35-1,3.88,3.88,0,0,1-.73-2.19v-.44h1.81Z"/></g><g id="text6075-0-6-9-2-5-9-0-9-4"><path id="path2312" class="cls-2" d="M14.58,42.25V16.79L10.29,20V15.45l4.29-3.12h4.24V42.25Z"/><path id="path2314" class="cls-2" d="M29.19,42.34A6.19,6.19,0,0,1,23.7,36.8V17.55c.39-2.35,1.41-3.93,3.08-4.73a8.09,8.09,0,0,1,3.44-.76,10.54,10.54,0,0,1,2.32.27,10.66,10.66,0,0,1,2.59,2.1,5.93,5.93,0,0,1,1.34,3.12V36.71a6.26,6.26,0,0,1-4.64,5.59H31c-.15,0-.74,0-1.79,0Zm.45-4.29a2.35,2.35,0,0,0,2.5-1.78V18.22a7.07,7.07,0,0,0-.58-1.38,2.42,2.42,0,0,0-1.47-.58,1.54,1.54,0,0,0-1.25.58,3.66,3.66,0,0,0-.76,1.38v18A2.35,2.35,0,0,0,29.64,38.05Z"/></g><path id="rect7477-8-0" class="cls-3" d="M60.49,79.82v9.41H88.7V79.82Zm0,17.42v9.56H88.7V97.24ZM74.56,54.3l-14,14h28ZM49.75,79.11l-14,14,14,14Zm49.68.06v27.77l13.89-13.89Zm-38.62,39,13.71,13.71,13.71-13.71Z"/></g></g></svg>