<svg xmlns="http://www.w3.org/2000/svg" viewBox="0 0 148.09 148.33"><defs><style>.cls-1{fill:#183668;fill-rule:evenodd;}.cls-2{fill:#fff;}.cls-3{fill:none;stroke:#fff;stroke-linecap:round;stroke-linejoin:round;stroke-width:4px;}</style></defs><g id="Layer_2" data-name="Layer 2"><g id="svg2"><path id="rect8528-63-2-4-3-6-0-4-3-6-3-7-4-9-4" class="cls-1" d="M.83,0H147.27a.83.83,0,0,1,.82.83V147.51a.82.82,0,0,1-.82.82H.83a.82.82,0,0,1-.83-.82V.83A.83.83,0,0,1,.83,0Z"/><g id="text6065-3-2-9-6-6-5-5-2-9-7-0"><path id="path2628" class="cls-2" d="M48.22,25.54V13h3a2.33,2.33,0,0,1,1.06.25,3.19,3.19,0,0,1,.9.59,2.87,2.87,0,0,1,.61.86,2.27,2.27,0,0,1,.26,1v2a2.83,2.83,0,0,1-.24,1.16,2.73,2.73,0,0,1-.62.91,2.86,2.86,0,0,1-.93.62,2.8,2.8,0,0,1-1.12.22H50v4.93Zm3.79-7a.65.65,0,0,0,.2-.36,1.51,1.51,0,0,0,.06-.46V15.89A1.2,1.2,0,0,0,52,15a1.08,1.08,0,0,0-.86-.35H50v4.23h.93a3.12,3.12,0,0,0,.6-.05,1.17,1.17,0,0,0,.47-.3Z"/><path id="path2630" class="cls-2" d="M54.16,25.54,57,13h1.55l2.8,12.51H59.39l-.51-2.69H56.57L56,25.54Zm2.72-4.35h1.68l-.84-4.55Z"/><path id="path2632" class="cls-2" d="M62.2,25.54V13h3.14a2.79,2.79,0,0,1,2.07.86A2.88,2.88,0,0,1,68.27,16v1.16a2.92,2.92,0,0,1-1.48,2.65l1.91,5.73H66.79l-1.68-5.36H64v5.36Zm4-7.34a1.09,1.09,0,0,0,.22-.46,2.14,2.14,0,0,0,.08-.58V16a1.35,1.35,0,0,0-.32-.93,1.11,1.11,0,0,0-.9-.38H64V18.6h1.25a1.22,1.22,0,0,0,.94-.4Z"/><path id="path2634" class="cls-2" d="M70.76,25.54V14.69H68.65V13h6v1.66H72.53V25.54Z"/><path id="path2636" class="cls-2" d="M80,25.54l-2.78-7.6v7.6h-1.8V13h1.7l2.77,7.58V13h1.79V25.54Z"/><path id="path2638" class="cls-2" d="M88.05,23.75v1.79H82.69V13h5.36v1.65H84.46v3.69H87.6v1.7H84.46v3.68Z"/><path id="path2640" class="cls-2" d="M88.87,25.54V13H92a2.79,2.79,0,0,1,2.07.86A2.84,2.84,0,0,1,94.93,16v1.16a2.93,2.93,0,0,1-1.47,2.65l1.9,5.73h-1.9l-1.68-5.36H90.66v5.36Zm4-7.34a1.11,1.11,0,0,0,.23-.46,2.15,2.15,0,0,0,.07-.58V16a1.35,1.35,0,0,0-.32-.93,1.11,1.11,0,0,0-.89-.38H90.66V18.6h1.25a1.21,1.21,0,0,0,.93-.4Z"/><path id="path2642" class="cls-2" d="M97.4,22.42v.32a1.27,1.27,0,0,0,0,.22,1.65,1.65,0,0,0,.28.55,1.08,1.08,0,0,0,.93.37,1.58,1.58,0,0,0,.69-.15,1.1,1.1,0,0,0,.47-.43.94.94,0,0,0,.13-.39,1.48,1.48,0,0,0,0-.34V21.36a1.17,1.17,0,0,0-.15-.64,1.92,1.92,0,0,0-.67-.54,12.61,12.61,0,0,0-1.27-.52,3.59,3.59,0,0,1-1.53-1.06,3,3,0,0,1-.62-2v-.56a3.13,3.13,0,0,1,.86-2.21,2.8,2.8,0,0,1,2.13-.93,2.83,2.83,0,0,1,2.16.92,3.07,3.07,0,0,1,.88,2.22v.56H100v-.56a2,2,0,0,0,0-.25,1.23,1.23,0,0,0,0-.2.64.64,0,0,0-.09-.22,2.85,2.85,0,0,0-.21-.32,1,1,0,0,0-.87-.38,1.17,1.17,0,0,0-.9.4,1.45,1.45,0,0,0-.34,1v.73a1.26,1.26,0,0,0,.12.59,1.55,1.55,0,0,0,.59.47l.45.2.77.28A3.86,3.86,0,0,1,101,19.4a2.85,2.85,0,0,1,.71,2v1a3.81,3.81,0,0,1-.13,1.1,4.08,4.08,0,0,1-.77,1.31,2.61,2.61,0,0,1-2.18.82,2.67,2.67,0,0,1-2.35-1,3.8,3.8,0,0,1-.73-2.19V22H97.4Z"/><path id="path2644" class="cls-2" d="M102.79,25.54V13h1.78v5.34h2.27V13h1.78V25.54h-1.78V20h-2.27v5.58Z"/><path id="path2646" class="cls-2" d="M110.38,25.54V13h1.77V25.54Z"/><path id="path2648" class="cls-2" d="M113.65,25.54V13h3a2.3,2.3,0,0,1,1.06.25,3.05,3.05,0,0,1,.9.59,2.7,2.7,0,0,1,.61.86,2.28,2.28,0,0,1,.27,1v2a2.69,2.69,0,0,1-.25,1.16,2.85,2.85,0,0,1-.61.91,2.9,2.9,0,0,1-.94.62,2.76,2.76,0,0,1-1.12.22h-1.1v4.93Zm3.79-7a.74.74,0,0,0,.21-.36,2,2,0,0,0,0-.46V15.89a1.16,1.16,0,0,0-.32-.86,1.06,1.06,0,0,0-.85-.35h-1.09v4.23h.94a3.09,3.09,0,0,0,.59-.05,1.11,1.11,0,0,0,.47-.3Z"/><path id="path2650" class="cls-2" d="M122.14,22.42v.32a.72.72,0,0,0,0,.22,1.65,1.65,0,0,0,.28.55,1.07,1.07,0,0,0,.93.37,1.58,1.58,0,0,0,.69-.15,1.16,1.16,0,0,0,.47-.43,1.12,1.12,0,0,0,.13-.39,2.38,2.38,0,0,0,0-.34V21.36a1.17,1.17,0,0,0-.15-.64,2,2,0,0,0-.68-.54,12.17,12.17,0,0,0-1.26-.52,3.68,3.68,0,0,1-1.54-1.06,3,3,0,0,1-.61-2v-.56a3.09,3.09,0,0,1,.86-2.21,2.8,2.8,0,0,1,2.13-.93,2.83,2.83,0,0,1,2.16.92,3.07,3.07,0,0,1,.88,2.22v.56H124.7v-.56a2,2,0,0,0,0-.25,1.23,1.23,0,0,0,0-.2.93.93,0,0,0-.09-.22,2.85,2.85,0,0,0-.21-.32,1,1,0,0,0-.88-.38,1.15,1.15,0,0,0-.89.4,1.4,1.4,0,0,0-.34,1v.73a1.41,1.41,0,0,0,.11.59,1.69,1.69,0,0,0,.6.47l.45.2.76.28a3.83,3.83,0,0,1,1.61,1.07,2.85,2.85,0,0,1,.71,2v1a4.19,4.19,0,0,1-.13,1.1,4.28,4.28,0,0,1-.77,1.31,2.61,2.61,0,0,1-2.18.82,2.67,2.67,0,0,1-2.35-1,3.8,3.8,0,0,1-.73-2.19V22h1.81Z"/><path id="path2652" class="cls-2" d="M48.22,42.79V30.28h5.34V32H50v3.75h3.12v1.68H50v5.4Z"/><path id="path2654" class="cls-2" d="M54.44,31.46a3.09,3.09,0,0,1,1.09-.94,3,3,0,0,1,2.67-.07,2.9,2.9,0,0,1,1,.76,2.69,2.69,0,0,1,.56,1,3.85,3.85,0,0,1,.15,1.1v6.37a4.22,4.22,0,0,1-.11,1,2.77,2.77,0,0,1-.45,1,2.72,2.72,0,0,1-1,.9A2.81,2.81,0,0,1,57,42.9a3.49,3.49,0,0,1-.86-.11,4,4,0,0,1-.76-.34A3.41,3.41,0,0,1,54.7,42a2.27,2.27,0,0,1-.41-.54,3.76,3.76,0,0,1-.33-.93,5,5,0,0,1-.06-.82V33.32a4.22,4.22,0,0,1,.11-1,3.06,3.06,0,0,1,.43-.87Zm3.48,1a1.13,1.13,0,0,0-1-.53,1.28,1.28,0,0,0-.63.19,1.1,1.1,0,0,0-.43.39,2,2,0,0,0-.15.45,3.15,3.15,0,0,0,0,.37v6.57a1.65,1.65,0,0,0,0,.21,1.9,1.9,0,0,0,.3.62,1.07,1.07,0,0,0,.93.39,1.16,1.16,0,0,0,.6-.15,1,1,0,0,0,.39-.38,1.09,1.09,0,0,0,.17-.41,2.09,2.09,0,0,0,0-.48V33.32a2.1,2.1,0,0,0,0-.52.69.69,0,0,0-.18-.35Z"/><path id="path2656" class="cls-2" d="M61.44,42.79V30.28h3.13a2.8,2.8,0,0,1,2.08.86,2.86,2.86,0,0,1,.85,2.11v1.16A3,3,0,0,1,66,37.06l1.9,5.73H66l-1.68-5.36H63.23v5.36Zm4-7.34a1,1,0,0,0,.23-.47,2,2,0,0,0,.07-.57V33.25a1.32,1.32,0,0,0-.31-.93,1.13,1.13,0,0,0-.9-.38H63.23v3.9h1.25a1.22,1.22,0,0,0,.93-.39Z"/><path id="path2658" class="cls-2" d="M72.06,42.79V31.94H70V30.28h6v1.66H73.83V42.79Z"/><path id="path2660" class="cls-2" d="M76.68,42.79V30.28h1.78v5.34h2.27V30.28h1.78V42.79H80.73V37.21H78.46v5.58Z"/><path id="path2662" class="cls-2" d="M89.54,41v1.79H84.18V30.28h5.36v1.64H86v3.7h3.14v1.7H86V41Z"/><path id="path2664" class="cls-2" d="M97.8,41.48a3.15,3.15,0,0,1-1.1,1.05,3.09,3.09,0,0,1-1.48.37,3,3,0,0,1-1.38-.34,2.86,2.86,0,0,1-1-.82,3.21,3.21,0,0,1-.48-1,4.87,4.87,0,0,1-.11-1.13V33.34a4.88,4.88,0,0,1,.09-.93A5.84,5.84,0,0,1,93,31.08a2.51,2.51,0,0,1,2.28-.91,3,3,0,0,1,1.4.35,2.75,2.75,0,0,1,1,.88,2.89,2.89,0,0,1,.45,1,4.23,4.23,0,0,1,.11,1v.52H96.45v-.52a2.09,2.09,0,0,0,0-.26,1.27,1.27,0,0,0,0-.22,1.52,1.52,0,0,0-.28-.54,1,1,0,0,0-.88-.38,1,1,0,0,0-1,.39,2.25,2.25,0,0,0-.26.58,1.91,1.91,0,0,0,0,.43v6.57a1.52,1.52,0,0,0,0,.23,1.82,1.82,0,0,0,.28.58,1,1,0,0,0,.95.39q.74,0,.93-.39a3.54,3.54,0,0,0,.17-.34,2.38,2.38,0,0,0,.08-.26.91.91,0,0,0,0-.23V37.41H95V35.84h3.21V39.6c0,.26,0,.48,0,.67a2,2,0,0,1-.08.46,1.49,1.49,0,0,1-.15.4,3.91,3.91,0,0,1-.18.35Z"/><path id="path2666" class="cls-2" d="M100.23,31.46a3.09,3.09,0,0,1,1.09-.94,3,3,0,0,1,1.38-.35,3,3,0,0,1,1.29.28,2.9,2.9,0,0,1,1,.76,2.69,2.69,0,0,1,.56,1,3.85,3.85,0,0,1,.15,1.1v6.37a3.75,3.75,0,0,1-.11,1,2.77,2.77,0,0,1-.45,1,2.72,2.72,0,0,1-1,.9,2.81,2.81,0,0,1-1.42.37,3.41,3.41,0,0,1-.85-.11,3.83,3.83,0,0,1-.77-.34,3,3,0,0,1-.63-.47,2,2,0,0,1-.41-.54,3.47,3.47,0,0,1-.34-.93,5,5,0,0,1-.06-.82V33.32a3.73,3.73,0,0,1,.12-1,3,3,0,0,1,.42-.87Zm3.48,1a1.12,1.12,0,0,0-1-.53,1.28,1.28,0,0,0-.64.19,1.1,1.1,0,0,0-.43.39,2,2,0,0,0-.15.45,2.86,2.86,0,0,0,0,.37v6.57a1.55,1.55,0,0,0,0,.21,2.14,2.14,0,0,0,.3.62,1.08,1.08,0,0,0,.94.39,1.15,1.15,0,0,0,.59-.15,1.05,1.05,0,0,0,.4-.38,1.24,1.24,0,0,0,.16-.41,2.09,2.09,0,0,0,0-.48V33.32a2.1,2.1,0,0,0,0-.52.69.69,0,0,0-.18-.35Z"/><path id="path2668" class="cls-2" d="M106.48,42.79l2.8-12.51h1.54l2.8,12.51H111.7l-.5-2.69h-2.32l-.52,2.69Zm2.72-4.35h1.68L110,33.88Z"/><path id="path2670" class="cls-2" d="M119.8,42.79h-5.33V30.28h1.79V41h3.54Z"/><path id="path2672" class="cls-2" d="M121.67,39.67V40a1.38,1.38,0,0,0,0,.22,1.73,1.73,0,0,0,.28.54,1.08,1.08,0,0,0,.94.38,1.58,1.58,0,0,0,.69-.15,1.2,1.2,0,0,0,.46-.43.94.94,0,0,0,.13-.39,1.48,1.48,0,0,0,0-.34V38.61a1.14,1.14,0,0,0-.15-.64,1.92,1.92,0,0,0-.67-.54,12.61,12.61,0,0,0-1.27-.52,3.61,3.61,0,0,1-1.53-1.07,3,3,0,0,1-.62-2V33.3a3.12,3.12,0,0,1,.86-2.2,3,3,0,0,1,4.3,0A3.1,3.1,0,0,1,126,33.3v.56h-1.79V33.3a1,1,0,0,0,0-.24.65.65,0,0,0,0-.2.68.68,0,0,0-.09-.23l-.2-.31a1,1,0,0,0-.88-.38,1.17,1.17,0,0,0-.9.39,1.48,1.48,0,0,0-.33,1V34a1.29,1.29,0,0,0,.11.6,1.71,1.71,0,0,0,.6.47l.44.2.77.28a3.8,3.8,0,0,1,1.6,1.07,2.81,2.81,0,0,1,.71,2v1a3.86,3.86,0,0,1-.13,1.1,4.2,4.2,0,0,1-.76,1.31,3.24,3.24,0,0,1-4.54-.23,3.85,3.85,0,0,1-.73-2.18v-.45h1.81Z"/></g><g id="text6075-0-6-9-2-5-9-1-4-7-6-6"><path id="path2675" class="cls-2" d="M17.65,42.94V17.48L13.36,20.7V16.14L17.65,13h4.24V42.94Z"/><path id="path2677" class="cls-2" d="M28.33,20.52h-3.8V13H37.31V16.9l-7,26H25.79L33.07,17H28.33Z"/></g><path id="path8491" class="cls-3" d="M74.86,90.45A17.32,17.32,0,1,1,57.54,73.13,17.31,17.31,0,0,1,74.86,90.45Z"/><path id="path8491-5" class="cls-3" d="M92.42,77.66A17.33,17.33,0,1,1,75.1,60.34,17.32,17.32,0,0,1,92.42,77.66Z"/><path id="path8491-6" class="cls-3" d="M103.11,110.85A17.33,17.33,0,1,1,85.79,93.52,17.33,17.33,0,0,1,103.11,110.85Z"/><path id="path8491-0" class="cls-3" d="M109.79,90.24A17.32,17.32,0,1,1,92.47,72.92,17.33,17.33,0,0,1,109.79,90.24Z"/><path id="path8491-52" class="cls-3" d="M81.51,111A17.33,17.33,0,1,1,64.18,93.63,17.33,17.33,0,0,1,81.51,111Z"/></g></g></svg>