<svg xmlns="http://www.w3.org/2000/svg" viewBox="0 0 148.09 148.33"><defs><style>.cls-1{fill:#d3a029;}.cls-1,.cls-3{fill-rule:evenodd;}.cls-2,.cls-3{fill:#fff;}</style></defs><g id="Layer_2" data-name="Layer 2"><g id="svg2"><path id="rect8528" class="cls-1" d="M.83,0H147.27a.83.83,0,0,1,.82.83V147.51a.82.82,0,0,1-.82.82H.83a.82.82,0,0,1-.83-.82V.83A.83.83,0,0,1,.83,0Z"/><g id="text6065-3"><path id="path1897" class="cls-2" d="M42.77,25.75v-1.6l3.36-9.24H43V13.25h5.12v1.43L44.78,24h3.35v1.79Z"/><path id="path1899" class="cls-2" d="M55,24v1.79H49.63V13.25H55v1.64H51.4v3.69h3.14v1.7H51.4V24Z"/><path id="path1901" class="cls-2" d="M55.91,25.75V13.25H59a2.78,2.78,0,0,1,2.07.85A2.86,2.86,0,0,1,62,16.21v1.16A2.93,2.93,0,0,1,60.5,20l1.9,5.73H60.5l-1.68-5.36H57.7v5.36Zm4-7.33a1.21,1.21,0,0,0,.23-.47,2.1,2.1,0,0,0,.07-.58V16.21a1.32,1.32,0,0,0-.32-.93,1.1,1.1,0,0,0-.89-.37H57.7v3.9H59a1.24,1.24,0,0,0,.93-.39Z"/><path id="path1903" class="cls-2" d="M63.57,14.42a3,3,0,0,1,1.08-.93A2.9,2.9,0,0,1,66,13.13a3.11,3.11,0,0,1,1.29.28,3.06,3.06,0,0,1,1,.77,2.75,2.75,0,0,1,.56,1,3.8,3.8,0,0,1,.15,1.1v6.36a4.1,4.1,0,0,1-.11,1,3,3,0,0,1-.45.95,2.89,2.89,0,0,1-1,.9,2.74,2.74,0,0,1-1.42.37,3.07,3.07,0,0,1-.86-.11,4.36,4.36,0,0,1-.76-.33,3.92,3.92,0,0,1-.64-.47,2.49,2.49,0,0,1-.41-.54,3.64,3.64,0,0,1-.34-.94,6.44,6.44,0,0,1,0-.82V16.29a4.1,4.1,0,0,1,.11-1,3.11,3.11,0,0,1,.43-.88Zm3.47,1a1.1,1.1,0,0,0-1-.52,1.26,1.26,0,0,0-.63.18,1.12,1.12,0,0,0-.43.4,1.35,1.35,0,0,0-.15.44,2,2,0,0,0,0,.38v6.57a1.5,1.5,0,0,0,0,.2,1.63,1.63,0,0,0,.3.62,1.06,1.06,0,0,0,.93.39,1.19,1.19,0,0,0,.6-.15.94.94,0,0,0,.39-.37,1.49,1.49,0,0,0,.17-.41,3.11,3.11,0,0,0,0-.49V16.29a2.68,2.68,0,0,0,0-.52.79.79,0,0,0-.19-.36Z"/><path id="path1905" class="cls-2" d="M43.14,43V30.49h1.78v5.34h2.27V30.49H49V43H47.19V37.42H44.92V43Z"/><path id="path1907" class="cls-2" d="M56.32,41.69a3.16,3.16,0,0,1-1.06,1,2.68,2.68,0,0,1-1.42.39,3.13,3.13,0,0,1-.79-.11,6.15,6.15,0,0,1-.71-.28,3.83,3.83,0,0,1-.59-.41,1.51,1.51,0,0,1-.39-.51,3.62,3.62,0,0,1-.38-.91,4.46,4.46,0,0,1-.07-.84V30.49H52.7v9.8l0,.19A1.39,1.39,0,0,0,53,41a1,1,0,0,0,.84.34.89.89,0,0,0,.8-.39,1.57,1.57,0,0,0,.28-.9V30.49h1.79v9.56a4,4,0,0,1-.09.86,2.62,2.62,0,0,1-.32.78Z"/><path id="path1909" class="cls-2" d="M62.43,43l-2.78-7.6V43H57.86V30.49h1.7l2.76,7.58V30.49h1.79V43Z"/><path id="path1911" class="cls-2" d="M71,41.69a3.07,3.07,0,0,1-1.1,1.05,3.06,3.06,0,0,1-2.86,0A3,3,0,0,1,66,42a3.27,3.27,0,0,1-.48-1,5,5,0,0,1-.11-1.14V33.55a4.88,4.88,0,0,1,.09-.93,5.84,5.84,0,0,1,.69-1.33,2.53,2.53,0,0,1,2.28-.91,2.86,2.86,0,0,1,1.4.36,2.64,2.64,0,0,1,1,.87,2.89,2.89,0,0,1,.45,1,4.3,4.3,0,0,1,.11,1v.53H69.67v-.53a2.09,2.09,0,0,0,0-.26,1.38,1.38,0,0,0,0-.22,1.71,1.71,0,0,0-.28-.54,1,1,0,0,0-.88-.38,1,1,0,0,0-1,.4,2.08,2.08,0,0,0-.26.57,1.91,1.91,0,0,0,0,.43v6.57a1.4,1.4,0,0,0,0,.23,1.82,1.82,0,0,0,.28.58,1,1,0,0,0,.95.39q.74,0,.93-.39a2.12,2.12,0,0,0,.17-.34,2.38,2.38,0,0,0,.08-.26.83.83,0,0,0,0-.22V37.62H68.24V36.06h3.21v3.75c0,.26,0,.48,0,.67a2.19,2.19,0,0,1-.08.47,2,2,0,0,1-.14.39c0,.11-.12.23-.19.35Z"/><path id="path1913" class="cls-2" d="M78.16,41.21V43H72.8V30.49h5.36v1.64H74.57v3.7h3.14v1.7H74.57v3.68Z"/><path id="path1915" class="cls-2" d="M78.93,43V30.49h3.14a2.79,2.79,0,0,1,2.07.86A2.88,2.88,0,0,1,85,33.46v1.16a2.93,2.93,0,0,1-1.47,2.65L85.43,43h-1.9l-1.68-5.36H80.73V43Zm4-7.34a1,1,0,0,0,.22-.46,2.14,2.14,0,0,0,.08-.58V33.46a1.33,1.33,0,0,0-.32-.93,1.11,1.11,0,0,0-.9-.38H80.73v3.9H82a1.24,1.24,0,0,0,.93-.39Z"/></g><g id="text6075-0"><path id="path1918" class="cls-2" d="M28.52,42.43H15.79V38.5l8-15.46a4.9,4.9,0,0,0,.53-2.18V18.62a2.11,2.11,0,0,0-.62-1.52,2,2,0,0,0-1.52-.67,2.25,2.25,0,0,0-1.48.58A1.91,1.91,0,0,0,20,18.44v2.64H15.71V18.93A9.69,9.69,0,0,1,17,14.69q1.34-2.46,5.36-2.46a5.7,5.7,0,0,1,4.33,1.93,6.36,6.36,0,0,1,1.83,4.46v2.73a7.62,7.62,0,0,1-1,3.66l-6.7,13.18h7.68Z"/></g><path id="path6925" class="cls-3" d="M83.55,129.21c1.17,0,1.38-1.28,1.32-2.11-.07-1,.9-1.16,1.41-1.33a39.45,39.45,0,0,0,16.45-10.29c4.55-4.8,8.14-9.78,9.44-18.09a1.43,1.43,0,0,0-1.41-1.8H33.43A1.42,1.42,0,0,0,32,97.39c1.3,8.31,4.89,13.29,9.44,18.09a39.45,39.45,0,0,0,16.45,10.29c.51.17,1.48.32,1.41,1.33-.06.83.15,2.11,1.32,2.11Zm-26.38-37H62.3A12.17,12.17,0,0,0,59.05,80a10.35,10.35,0,0,1-2.93-7,14.67,14.67,0,0,1,2.81-8.66c1.65-2.66-2.29-4.53-4-2.49a18.49,18.49,0,0,0-4.13,11.54c0,4.6,2.23,6.94,4.52,9.67,4.25,5.06,1.83,9.16,1.83,9.16Zm30.89,0h5.13A12.16,12.16,0,0,0,89.93,80,10.35,10.35,0,0,1,87,73a14.67,14.67,0,0,1,2.81-8.66c1.65-2.66-2.28-4.53-4-2.49A18.55,18.55,0,0,0,81.7,73.37c0,4.6,2.24,6.94,4.52,9.67,4.25,5.06,1.84,9.16,1.84,9.16Zm-15.37,0h5.13A12.17,12.17,0,0,0,74.57,80a10.35,10.35,0,0,1-2.93-7,14.67,14.67,0,0,1,2.81-8.66c1.65-2.66-2.29-4.53-4-2.49a18.49,18.49,0,0,0-4.13,11.54c0,4.6,2.23,6.94,4.52,9.67,4.25,5.06,1.83,9.16,1.83,9.16Z"/></g></g></svg>