<svg xmlns="http://www.w3.org/2000/svg" viewBox="0 0 148.09 148.33"><defs><style>.cls-1{fill:#007dbc;fill-rule:evenodd;}.cls-2{fill:#fff;}</style></defs><g id="Layer_2" data-name="Layer 2"><g id="svg2"><path id="rect8528-63-2-4-3-6-0-4-3-6-3-7" class="cls-1" d="M.83,0H147.27a.83.83,0,0,1,.82.83V147.51a.82.82,0,0,1-.82.82H.83a.82.82,0,0,1-.83-.82V.83A.83.83,0,0,1,.83,0Z"/><g id="text6065-3-2-9-6-6-5-5-2"><path id="path2494" class="cls-2" d="M53.72,25.54H48.38V13h1.79V23.75h3.55Z"/><path id="path2496" class="cls-2" d="M54.3,25.54V13h1.78V25.54Z"/><path id="path2498" class="cls-2" d="M57.59,25.54V13h5.34v1.68H59.37v3.76h3.12v1.68H59.37v5.39Z"/><path id="path2500" class="cls-2" d="M68.9,23.75v1.79H63.55V13H68.9v1.65H65.32v3.69h3.13v1.7H65.32v3.68Z"/><path id="path2502" class="cls-2" d="M51.31,30.28a2.52,2.52,0,0,1,1.09.24,4.29,4.29,0,0,1,1.13.84,2.47,2.47,0,0,1,.62,1.87v1a2.08,2.08,0,0,1-1.14,2,2.25,2.25,0,0,1,1.14,2.09v1.45a3,3,0,0,1-.86,2.19,2.9,2.9,0,0,1-2.16.86H48.36V30.28ZM52.38,34v-.77a1.19,1.19,0,0,0-.34-.91,1.15,1.15,0,0,0-.89-.36h-1v3.45H51.2a1.06,1.06,0,0,0,.9-.37,1.8,1.8,0,0,0,.28-1Zm0,5.74V38.29a1.22,1.22,0,0,0-.34-.93,1.12,1.12,0,0,0-.89-.36h-1v4h1a1.14,1.14,0,0,0,.88-.35,1.29,1.29,0,0,0,.34-.92Z"/><path id="path2504" class="cls-2" d="M61.27,41v1.79H55.91V30.28h5.36v1.64H57.68v3.7h3.14v1.7H57.68V41Z"/><path id="path2506" class="cls-2" d="M67.33,42.79H62V30.28h1.79V41h3.55Z"/><path id="path2508" class="cls-2" d="M68.06,31.46a3.09,3.09,0,0,1,1.09-.94,3,3,0,0,1,2.67-.07,2.9,2.9,0,0,1,1,.76,2.69,2.69,0,0,1,.56,1,3.85,3.85,0,0,1,.15,1.1v6.37a4.22,4.22,0,0,1-.11,1,2.77,2.77,0,0,1-.45,1,2.72,2.72,0,0,1-1,.9,2.81,2.81,0,0,1-1.42.37,3.41,3.41,0,0,1-.85-.11,3.83,3.83,0,0,1-.77-.34,3,3,0,0,1-.63-.47,2.08,2.08,0,0,1-.42-.54,3.76,3.76,0,0,1-.33-.93,5,5,0,0,1-.06-.82V33.32a4.22,4.22,0,0,1,.11-1,3.06,3.06,0,0,1,.43-.87Zm3.48,1a1.12,1.12,0,0,0-1-.53,1.28,1.28,0,0,0-.64.19,1.1,1.1,0,0,0-.43.39,2,2,0,0,0-.15.45,3.15,3.15,0,0,0,0,.37v6.57a1.65,1.65,0,0,0,0,.21,2.14,2.14,0,0,0,.3.62,1.08,1.08,0,0,0,.94.39,1.15,1.15,0,0,0,.59-.15,1,1,0,0,0,.39-.38,1.09,1.09,0,0,0,.17-.41,2.09,2.09,0,0,0,0-.48V33.32a2.1,2.1,0,0,0,0-.52.69.69,0,0,0-.18-.35Z"/><path id="path2510" class="cls-2" d="M80.87,42.79,79.4,35.17,78,42.79H76.3L74.49,30.28h1.9l.9,7.56,1.43-7.56h1.33l1.47,7.56.9-7.56h1.89L82.55,42.79Z"/><path id="path2512" class="cls-2" d="M93,42.79l-1.48-7.62-1.43,7.62H88.45L86.63,30.28h1.91l.89,7.56,1.44-7.56H92.2l1.47,7.56.9-7.56h1.88L94.7,42.79Z"/><path id="path2514" class="cls-2" d="M96.05,42.79l2.8-12.51h1.55l2.8,12.51h-1.92l-.5-2.69H98.46l-.52,2.69Zm2.73-4.35h1.68l-.84-4.56Z"/><path id="path2516" class="cls-2" d="M104.7,42.79V31.94h-2.11V30.28h6v1.66h-2.15V42.79Z"/><path id="path2518" class="cls-2" d="M115,41v1.79H109.6V30.28H115v1.64h-3.58v3.7h3.13v1.7h-3.13V41Z"/><path id="path2520" class="cls-2" d="M115.65,42.79V30.28h3.13a2.79,2.79,0,0,1,2.07.86,2.83,2.83,0,0,1,.86,2.11v1.16a3,3,0,0,1-1.47,2.65l1.9,5.73h-1.9l-1.68-5.36h-1.12v5.36Zm4-7.34a1.15,1.15,0,0,0,.23-.47,2,2,0,0,0,.07-.57V33.25a1.33,1.33,0,0,0-.32-.93,1.11,1.11,0,0,0-.89-.38h-1.27v3.9h1.25a1.24,1.24,0,0,0,.93-.39Z"/></g><g id="text6075-0-6-9-2-5-9-1-4"><path id="path2523" class="cls-2" d="M14.65,42.94V17.48L10.36,20.7V16.14L14.65,13H18.9V42.94Z"/><path id="path2525" class="cls-2" d="M30.21,42.94V38.39H21.68v-4L27.89,13H32.4L26,34.37h4.2V25.84H34.5v8.53h2.1v4H34.5v4.55Z"/></g><path id="path8226-6-0" class="cls-2" d="M82.69,91.05c-10.1.23-20,5.57-29.83,12.86-4.33-7.43-10-12.72-19.13-12.75,8.69,12.93,7,24.45,0,35.26,9.09,0,14.8-5.32,19.13-12.75,19.65,14.58,39.61,21.34,60.85-4.88C103.09,95.68,92.79,90.82,82.69,91.05Zm9.78,10.2a4.85,4.85,0,0,1,4.85,4.84h0a4.85,4.85,0,1,1-4.85-4.84ZM113,74.18l.35,4c-7.54,5.19-13.14,3.13-18.17-1-6.23,4.59-13.08,5.95-21.42-.3-6.15,3.76-12.45,7.05-21.86.15C47,80.8,42,84.57,34.13,78.41l-.2-4.18c7.25,4.24,13,1.82,18.38-2.49C59.5,76.6,66.6,78,73.52,72c8,7.36,14.78,4.21,21.37-.2,4.83,3.09,9.27,7,18.07,2.34Zm0-12.25.35,4c-7.54,5.19-13.14,3.13-18.17-1-6.23,4.59-13.08,5.95-21.42-.3-6.15,3.76-12.45,7.05-21.86.15C47,68.55,42,72.32,34.13,66.16L33.93,62c7.25,4.24,13,1.82,18.38-2.49,7.19,4.86,14.29,6.29,21.21.3,8,7.36,14.78,4.21,21.37-.2,4.83,3.09,9.27,7,18.07,2.34Z"/></g></g></svg>