<svg xmlns="http://www.w3.org/2000/svg" viewBox="0 0 80.24 80.21"><defs><style>.cls-1{fill:#c31f33;}.cls-1,.cls-10,.cls-11,.cls-12,.cls-13,.cls-14,.cls-15,.cls-16,.cls-17,.cls-2,.cls-3,.cls-4,.cls-5,.cls-6,.cls-7,.cls-8,.cls-9{fill-rule:evenodd;}.cls-2{fill:#279b48;fill-opacity:1;}.cls-3{fill:#d3a029;}.cls-4{fill:#eb1c2d;}.cls-5{fill:#183668;}.cls-6{fill:#02558b;}.cls-7{fill:#5dbb46;fill-opacity:1;}.cls-8{fill:#007dbc;}.cls-9{fill:#48773e;}.cls-10{fill:#cf8d2a;}.cls-11{fill:#f99d26;}.cls-12{fill:#e11484;}.cls-13{fill:#f36d25;}.cls-14{fill:#8f1838;}.cls-15{fill:#fdb713;fill-opacity:0.99;}.cls-16{fill:#00aed9;}.cls-17{fill:#ef402b;}</style></defs><g id="Layer_2" data-name="Layer 2"><g id="svg2"><path id="path1200-4" class="cls-1" d="M76.72,23.66,61,30.73a22.78,22.78,0,0,1,1.82,6.42L79.9,34.92A39.81,39.81,0,0,0,76.72,23.66Z"/><path id="path1200-4-1" class="cls-2" d="M68.31,11.55,56.18,23.83a22.92,22.92,0,0,1,4,5.32L75.35,20.9A40.41,40.41,0,0,0,68.31,11.55Z"/><path id="path1200-4-1-5" class="cls-3" d="M56.1,3.29,49.23,19.13a22.69,22.69,0,0,1,5.66,3.51L66,9.47A40.55,40.55,0,0,0,56.1,3.29Z"/><path id="path1200-4-1-5-8" class="cls-4" d="M41.73,0,41,17.25a23.21,23.21,0,0,1,6.55,1.23L53.22,2.17A39.79,39.79,0,0,0,41.73,0Z"/><path id="path1200-4-1-5-8-0" class="cls-5" d="M27.14,2.13l5.58,16.33a23,23,0,0,1,6.56-1.21L38.64,0a39.89,39.89,0,0,0-11.5,2.13Z"/><path id="path1200-4-1-5-8-0-0" class="cls-6" d="M14.3,9.38,25.41,22.59a23.31,23.31,0,0,1,5.67-3.5L24.26,3.24a40.22,40.22,0,0,0-10,6.14Z"/><path id="path1200-4-1-5-8-0-0-0" class="cls-7" d="M5,20.78l15.13,8.31a23,23,0,0,1,4-5.32L12,11.46A40.16,40.16,0,0,0,5,20.78Z"/><path id="path1200-4-1-5-8-0-0-0-4" class="cls-8" d="M.35,34.79l17.11,2.28a23.16,23.16,0,0,1,1.83-6.41L3.57,23.54A40.39,40.39,0,0,0,.35,34.79Z"/><path id="path1200-4-1-5-8-0-0-0-4-7" class="cls-9" d="M1.12,49.51l16.78-4a22.83,22.83,0,0,1-.61-6.64l-17.23-1A40,40,0,0,0,1.12,49.51Z"/><path id="path1200-4-1-5-8-0-0-0-4-7-5" class="cls-10" d="M7.16,63l14.18-9.84a22.82,22.82,0,0,1-3-6L2,52.48A39.91,39.91,0,0,0,7.16,63Z"/><path id="path1200-4-1-5-8-0-0-0-4-7-5-3" class="cls-11" d="M17.65,73.33,27.31,59a23.12,23.12,0,0,1-4.92-4.5L9,65.43A40.31,40.31,0,0,0,17.65,73.33Z"/><path id="path1200-4-1-5-8-0-0-0-4-7-5-3-1" class="cls-12" d="M31.17,79.2,35,62.37A22.69,22.69,0,0,1,28.81,60L20.27,75a39.88,39.88,0,0,0,10.9,4.24Z"/><path id="path1200-4-1-5-8-0-0-0-4-7-5-3-1-4" class="cls-13" d="M45.9,79.79,43.41,62.71a22.53,22.53,0,0,1-6.66,0L34.2,79.77a39.89,39.89,0,0,0,11.7,0Z"/><path id="path1200-4-1-5-8-0-0-0-4-7-5-3-1-4-0" class="cls-14" d="M59.85,75,51.36,60a23.05,23.05,0,0,1-6.22,2.4l3.8,16.83A40,40,0,0,0,59.85,75Z"/><path id="path1200-4-1-5-8-0-0-0-4-7-5-3-1-4-0-1" class="cls-15" d="M71.14,65.54l-13.35-11a22.88,22.88,0,0,1-4.93,4.49L62.48,73.4a40.2,40.2,0,0,0,8.66-7.86Z"/><path id="path1200-4-1-5-8-0-0-0-4-7-5-3-1-4-0-1-3" class="cls-16" d="M78.23,52.61,61.84,47.23a23,23,0,0,1-3,6L73,63.08a39.94,39.94,0,0,0,5.23-10.47Z"/><path id="path1200-4-1-5-8-0-0-0-4-7-5-3-1-4-0-1-3-0" class="cls-17" d="M80.18,38,63,38.9a23.19,23.19,0,0,1-.63,6.64l16.76,4.11A39.73,39.73,0,0,0,80.18,38Z"/></g></g></svg>