<svg xmlns="http://www.w3.org/2000/svg" viewBox="0 0 675.93 86.5"><defs><style>.cls-1{fill:#00aeef;}.cls-2{fill:#4f91cd;}.cls-3{fill:#c31f33;}.cls-10,.cls-11,.cls-12,.cls-13,.cls-14,.cls-15,.cls-16,.cls-17,.cls-18,.cls-19,.cls-3,.cls-4,.cls-5,.cls-6,.cls-7,.cls-8,.cls-9{fill-rule:evenodd;}.cls-4{fill:#279b48;fill-opacity:1;}.cls-5{fill:#d3a029;}.cls-6{fill:#eb1c2d;}.cls-7{fill:#183668;}.cls-8{fill:#02558b;}.cls-9{fill:#5dbb46;fill-opacity:1;}.cls-10{fill:#007dbc;}.cls-11{fill:#48773e;}.cls-12{fill:#cf8d2a;}.cls-13{fill:#f99d26;}.cls-14{fill:#e11484;}.cls-15{fill:#f36d25;}.cls-16{fill:#8f1838;}.cls-17{fill:#fdb713;fill-opacity:0.99;}.cls-18{fill:#00aed9;}.cls-19{fill:#ef402b;}</style></defs><g id="Layer_2" data-name="Layer 2"><g id="svg2"><path id="path890-2" class="cls-1" d="M287.46,49.8h24.09v6.36h-8.47V83.78H296V56.16h-8.56Zm-55.22.12H254v6H239v7.73h13.27v6H239v8h15v6.22H232.24Zm25.89,0V83.78H265V63.64l13.63,20.14h5.67V49.92h-6.55V69.36L264.25,49.92Zm-143.08,0h7V77.63h13.9v6.15H115.05Zm-25.83,0h21.72v6H96v7.73h13.27v6H96v8h15v6.22H89.22ZM287.47.77h23.79V7.32H294.89v8.47h14.52v6.52H294.89V31h16.37v6.81H287.47Zm-26.25,0h7.52V31H283.9v6.81H261.22Zm-31.37,0V37.84h15.7c6.11,0,11.92-2.62,11.94-10.16,0-7.09-4.27-8-6-9.13,2.5-2,4.35-3.76,4.35-8.23,0-2.62-1.52-9.55-11.22-9.55Zm7.42,6.55h6.19c6.37,0,6.57,8.47.48,8.47h-6.67Zm0,15H245c6.26,0,6.49,8.72.52,8.72h-8.28ZM161.32.77V37.84h7.56V15.79L183.8,37.84H190V.77h-7.17V22.05L168,.77ZM147.84,37.84V.77h7.51V37.84ZM210,11.47,214.05,23H206ZM206.43.77,193,37.84h7.83l2.81-8.05h12.86l2.85,8.05h7.62L213.85.77Zm-82.38,0L110.57,37.84h7.83l2.81-8.05h12.86l2.85,8.05h7.62L131.47.77Zm3.54,10.7L131.67,23h-8.1ZM87.57.77h26.28V7.7h-9.24V37.84h-7.7V7.7H87.57Zm-1.21,3.9-4.43,5.87S77.84,7,74.09,7C72,7,69.81,8.11,69.81,9.94c0,7.59,17.08,4.3,17.08,17.36,0,5.59-3.57,11.05-13,11.05a19.17,19.17,0,0,1-13.38-5.57l4.72-5.53s5.28,4.47,9.39,4.47c2,0,4.58-.93,4.72-3.8.33-6.9-17.18-3.7-17.18-16.84C62.11,5.09,66.59,0,74.52,0A17.71,17.71,0,0,1,86.36,4.67Zm-29,45.25h7.54L72,72.51l7.63-22.59H86.7L75.21,83.78H68.56Zm-23.4,0H55.67v6h-15v7.73H54v6H40.71v8h15v6.22H33.94ZM3,49.92V83.78H15.2c18.74,0,21.85-33.86-1.59-33.86Zm6.92,6.24h2.59c15,0,12.19,21.47,1.8,21.47H9.94ZM29.89,26V.77h7.23V24.31c0,9.73,13.57,9.73,13.57,0V.77h7.37V26C58.06,43.33,29.89,43.33,29.89,26Zm-4-21.37-4.43,5.87S17.37,7,13.62,7C11.53,7,9.35,8.11,9.35,9.94c0,7.59,17.08,4.3,17.08,17.36,0,5.59-3.57,11.05-13,11.05A19.17,19.17,0,0,1,0,32.78l4.72-5.53s5.27,4.47,9.39,4.47c2,0,4.57-.93,4.71-3.8.34-6.9-17.18-3.7-17.18-16.84C1.64,5.09,6.12,0,14.06,0A17.74,17.74,0,0,1,25.9,4.67ZM170.58,49.92V83.78h7.07V73.52h4.64c16.45,0,15.29-23.6.55-23.6Zm7.07,6.24h4c6.83,0,7.81,11.09.05,11.09h-4.09Zm19.41,27.62V49.92h7.46l7.53,13.62,7.65-13.62h7.23V83.78h-6.79V62.51l-8.09,14-8-14V83.78ZM151.39,49.24c-9.93,0-15.51,7.74-15.48,18.2s5.85,17.27,15.63,17.12,15-7.35,15.11-17.12S161.32,49.24,151.39,49.24Zm0,6.92c5.24,0,8.13,5.12,8.06,11.07s-2.82,10.32-8,10.41-8.24-4-8.25-10.41S146.1,56.16,151.34,56.16Z"/><g id="g5379"><path id="path1197" class="cls-2" d="M615.63,61.23l15.8-.5S630.51,73,646,73c6.38,0,13.79-3,13.79-9.46,0-4.31-1.94-5.9-6.54-7.95-5.42-2.43-8.53-3.12-13.57-5.12-4.46-1.76-12.52-3.33-17.92-9.8a21.43,21.43,0,0,1-5.26-13.57c0-9.42,7.35-25.47,28.7-25.47C673.62,1.64,674,24.19,674,24.19l-16,.5s.26-9.06-12.18-9.06c-9.32,0-13,4.52-13,8.86,0,5.56,2.5,6.69,5.74,8.56s7.18,2.82,11.48,3.92c2,.5,10.14,2.7,13.69,4.73,4.42,2.54,12.18,7.15,12.18,20.84,0,8.38-6.84,24-30.2,24-32.6,0-30.1-25.27-30.1-25.27Zm-101-58.77-30,82.2h17.52l5.74-17.41h29.81l5.82,17.41h17.65L531.73,2.46Zm8,19.85,10.66,31.88H512.12Zm42.14,62.35V3.79h15.93V70.12h31.21V84.66ZM400.36,26.86S393.84,1.65,364.11,1.65c-26.4,0-40.72,21-40.7,42.93,0,25.93,20.76,41.81,39.79,41.81,40.42,0,39.69-44.85,39.69-45.25H365.63V54.6h19.54s-2.47,17.52-20.55,17.52c-16.57,0-24.3-14.49-24.3-27.84,0-18.84,10.4-28.15,23.18-28.15,16.77,0,20.25,12.05,20.25,12.05Z"/><path id="path1200-4" class="cls-3" d="M485.39,29.22l-15.75,7.07a22.71,22.71,0,0,1,1.82,6.41l17.11-2.22A40,40,0,0,0,485.39,29.22Z"/><path id="path1200-4-1" class="cls-4" d="M477,17.11,464.85,29.39a22.67,22.67,0,0,1,4,5.32L484,26.45A40.14,40.14,0,0,0,477,17.11Z"/><path id="path1200-4-1-5" class="cls-5" d="M464.77,8.85l-6.88,15.83a22.79,22.79,0,0,1,5.67,3.52L474.7,15a40.16,40.16,0,0,0-9.93-6.17Z"/><path id="path1200-4-1-5-8" class="cls-6" d="M450.4,5.56l-.7,17.25A22.46,22.46,0,0,1,456.25,24l5.64-16.31A40.21,40.21,0,0,0,450.4,5.56Z"/><path id="path1200-4-1-5-8-0" class="cls-7" d="M435.81,7.69,441.39,24a22.51,22.51,0,0,1,6.55-1.22l-.63-17.25a40.24,40.24,0,0,0-11.5,2.14Z"/><path id="path1200-4-1-5-8-0-0" class="cls-8" d="M423,14.94l11.11,13.21a22.71,22.71,0,0,1,5.67-3.5L432.93,8.8a39.75,39.75,0,0,0-10,6.14Z"/><path id="path1200-4-1-5-8-0-0-0" class="cls-9" d="M413.62,26.34l15.13,8.3a22.87,22.87,0,0,1,4-5.31L420.69,17A40.21,40.21,0,0,0,413.62,26.34Z"/><path id="path1200-4-1-5-8-0-0-0-4" class="cls-10" d="M409,40.34l17.11,2.28a22.66,22.66,0,0,1,1.83-6.4L412.24,29.1A40.09,40.09,0,0,0,409,40.34Z"/><path id="path1200-4-1-5-8-0-0-0-4-7" class="cls-11" d="M409.79,55.07,426.57,51a22.76,22.76,0,0,1-.61-6.63l-17.23-1A40.08,40.08,0,0,0,409.79,55.07Z"/><path id="path1200-4-1-5-8-0-0-0-4-7-5" class="cls-12" d="M415.83,68.52,430,58.68a22.82,22.82,0,0,1-3-6L410.63,58A39.91,39.91,0,0,0,415.83,68.52Z"/><path id="path1200-4-1-5-8-0-0-0-4-7-5-3" class="cls-13" d="M426.31,78.88,436,64.58a22.83,22.83,0,0,1-4.92-4.49L417.68,71A40.49,40.49,0,0,0,426.31,78.88Z"/><path id="path1200-4-1-5-8-0-0-0-4-7-5-3-1" class="cls-14" d="M439.84,84.75l3.85-16.82a22.77,22.77,0,0,1-6.22-2.42l-8.54,15a40,40,0,0,0,10.91,4.24Z"/><path id="path1200-4-1-5-8-0-0-0-4-7-5-3-1-4" class="cls-15" d="M454.57,85.35l-2.49-17.08a22.94,22.94,0,0,1-6.67,0l-2.54,17.07a40.24,40.24,0,0,0,11.7,0Z"/><path id="path1200-4-1-5-8-0-0-0-4-7-5-3-1-4-0" class="cls-16" d="M468.52,80.58l-8.49-15a22.85,22.85,0,0,1-6.22,2.4l3.79,16.84a40.39,40.39,0,0,0,10.92-4.21Z"/><path id="path1200-4-1-5-8-0-0-0-4-7-5-3-1-4-0-1" class="cls-17" d="M479.8,71.09,466.46,60.15a23.34,23.34,0,0,1-4.93,4.48L471.15,79a40.22,40.22,0,0,0,8.65-7.87Z"/><path id="path1200-4-1-5-8-0-0-0-4-7-5-3-1-4-0-1-3" class="cls-18" d="M486.9,58.17l-16.4-5.39a22.85,22.85,0,0,1-3,6l14.15,9.88a40.19,40.19,0,0,0,5.23-10.46Z"/><path id="path1200-4-1-5-8-0-0-0-4-7-5-3-1-4-0-1-3-0" class="cls-19" d="M488.85,43.55l-17.24.91a22.77,22.77,0,0,1-.62,6.63l16.76,4.11a39.73,39.73,0,0,0,1.1-11.65Z"/></g></g></g></svg>